<?xml version="1.0" standalone="no"?><!DOCTYPE svg PUBLIC "-//W3C//DTD SVG 1.1//EN" "http://www.w3.org/Graphics/SVG/1.1/DTD/svg11.dtd"><svg t="1650787146961" class="icon" viewBox="0 0 1024 1024" version="1.1" xmlns="http://www.w3.org/2000/svg" p-id="3390" width="128" height="128" xmlns:xlink="http://www.w3.org/1999/xlink"><defs><style type="text/css">@font-face { font-family: "feedback-iconfont"; src: url("//at.alicdn.com/t/font_1031158_u69w8yhxdu.woff2?t=1630033759944") format("woff2"), url("//at.alicdn.com/t/font_1031158_u69w8yhxdu.woff?t=1630033759944") format("woff"), url("//at.alicdn.com/t/font_1031158_u69w8yhxdu.ttf?t=1630033759944") format("truetype"); }
</style></defs><path d="M264.234667 298.666667H341.333333v85.333333H128V170.666667h85.333333v54.186666C286.933333 135.808 392.362667 85.333333 512 85.333333c235.648 0 426.666667 191.018667 426.666667 426.666667h-85.333334a341.333333 341.333333 0 0 0-341.333333-341.333333C409.856 170.666667 322.304 216.704 264.234667 298.666667z m495.530666 426.666666H682.666667v-85.333333h213.333333v213.333333h-85.333333v-54.186666C737.066667 888.192 631.637333 938.666667 512 938.666667 276.352 938.666667 85.333333 747.648 85.333333 512h85.333334a341.333333 341.333333 0 0 0 341.333333 341.333333c102.144 0 189.696-46.037333 247.765333-128zM512 682.581333a42.666667 42.666667 0 1 1 0-85.333333 42.666667 42.666667 0 0 1 0 85.333333z m-42.538667-384h85.333334v256h-85.333334v-256z" p-id="3391" fill="#d81e06"></path></svg>